<?xml version="1.0" encoding="UTF-8"?><svg id="Laag_1" xmlns="http://www.w3.org/2000/svg" viewBox="0 0 170.32 187.87"><defs><style>.cls-1{fill:#e73c61;}</style></defs><g id="Laag_1-2"><path class="cls-1" d="M160.08,37.02L93.91,2.21c-5.6-2.95-12.29-2.94-17.89.02L10.21,37.01C3.93,40.33,0,46.85,0,53.96v79.97c0,7.11,3.93,13.63,10.22,16.95l65.81,34.77c5.59,2.95,12.28,2.96,17.88.02l66.16-34.79c6.3-3.31,10.25-9.85,10.25-16.97V53.98c0-7.12-3.94-13.65-10.24-16.97ZM37.94,43.21c0-1.08.8-2.16,2.41-2.99l38.99-20.02c3.22-1.65,8.43-1.65,11.64,0l38.99,20.02c1.61.83,2.41,1.91,2.41,2.99v17.75c0,1.08-.8,2.17-2.41,2.99l-38.99,20.02c-3.22,1.65-8.43,1.65-11.64,0l-38.99-20.02c-1.61-.83-2.41-1.91-2.41-2.99v-17.76ZM32.95,100.42v-19.63c0-1.2.89-2.39,2.67-3.31l5.02-2.58s19.85,10.16,29.2,14.93c1.92.98,1.86,3.74-.1,4.63l-22.97,12.23c-1.72.91-3.78.9-5.49-.03l-.98-.54-4.68-2.4c-1.78-.91-2.67-2.11-2.67-3.31ZM132.39,141.9c0,1.08-.8,2.17-2.41,2.99l-38.99,20.02c-3.22,1.65-8.43,1.65-11.64,0l-38.99-20.02c-1.61-.83-2.41-1.91-2.41-2.99v-17.76c0-1.08.8-2.16,2.41-2.99l4.54-2.33,33.06,16.98c1.98,1.02,4.55,1.58,7.21,1.58h0c2.66,0,5.23-.56,7.21-1.58l33.06-16.98,4.54,2.33c1.61.83,2.41,1.91,2.41,2.99v17.75ZM137.38,100.41c0,1.2-.89,2.39-2.67,3.31l-43.11,22.14c-3.56,1.83-9.32,1.83-12.87,0l-22.09-11.35c-1.52-.78-1.48-2.96.06-3.68l36.44-17.16,36.56-18.77,5.02,2.58c1.78.91,2.67,2.11,2.67,3.31v19.63Z"/></g></svg>